<svg xmlns="http://www.w3.org/2000/svg" xmlns:xlink="http://www.w3.org/1999/xlink" width="350" height="140" xmlns:v="https://vecta.io/nano"><style><![CDATA[.B{fill:url(#A)}.C{fill:url(#B)}]]></style><defs><linearGradient x1="50%" y1=".779%" x2="50%" y2="100%" id="A"><stop stop-color="#0989b4" stop-opacity="0" offset="0%"/><stop stop-color="#53ffee" offset="99.94%"/></linearGradient><linearGradient x1="50%" y1=".779%" x2="50%" y2="100%" id="B"><stop stop-color="#0989b4" stop-opacity="0" offset="0%"/><stop stop-color="#53ffee" offset="99.94%"/></linearGradient><path id="C" d="M0 0h350v140H0z"/></defs><g fill="none" fill-rule="evenodd"><mask id="D" fill="#fff"><use xlink:href="#C"/></mask><use fill="#41cbd3" xlink:href="#C"/><g mask="url(#D)" opacity=".5"><g transform="translate(-11 -4)"><ellipse transform="rotate(90 60.479 14.8)" cx="60.479" cy="14.8" rx="14.8" ry="14.834" class="B"/><g class="C"><ellipse transform="rotate(180 14.834 14.8)" cx="14.834" cy="14.8" rx="14.834" ry="14.8"/><ellipse cx="151.767" cy="14.8" rx="14.834" ry="14.8"/></g><g class="B"><ellipse transform="rotate(270 106.123 14.8)" cx="106.123" cy="14.8" rx="14.8" ry="14.834"/><ellipse transform="rotate(90 243.055 14.8)" cx="243.055" cy="14.8" rx="14.8" ry="14.834"/></g><g class="C"><ellipse transform="rotate(180 197.411 14.8)" cx="197.411" cy="14.8" rx="14.834" ry="14.8"/><ellipse cx="334.344" cy="14.8" rx="14.834" ry="14.8"/></g><ellipse transform="rotate(270 288.7 14.8)" cx="288.699" cy="14.8" rx="14.8" ry="14.834" class="B"/></g><g transform="translate(-11 91.63)"><ellipse transform="rotate(90 60.479 14.8)" cx="60.479" cy="14.8" rx="14.8" ry="14.834" class="B"/><g class="C"><ellipse transform="rotate(180 14.834 14.8)" cx="14.834" cy="14.8" rx="14.834" ry="14.8"/><ellipse cx="151.767" cy="14.8" rx="14.834" ry="14.8"/></g><g class="B"><ellipse transform="rotate(270 106.123 14.8)" cx="106.123" cy="14.8" rx="14.8" ry="14.834"/><ellipse transform="rotate(90 243.055 14.8)" cx="243.055" cy="14.8" rx="14.8" ry="14.834"/></g><g class="C"><ellipse transform="rotate(180 197.411 14.8)" cx="197.411" cy="14.8" rx="14.834" ry="14.8"/><ellipse cx="334.344" cy="14.8" rx="14.834" ry="14.8"/></g><ellipse transform="rotate(270 288.7 14.8)" cx="288.699" cy="14.8" rx="14.8" ry="14.834" class="B"/></g><g transform="translate(-11 43.815)"><ellipse transform="rotate(270 60.479 14.8)" cx="60.479" cy="14.8" rx="14.8" ry="14.834" class="B"/><g class="C"><ellipse cx="14.834" cy="14.8" rx="14.834" ry="14.8"/><ellipse cx="151.767" cy="14.8" rx="14.834" ry="14.8"/></g><g class="B"><ellipse transform="rotate(90 106.123 14.8)" cx="106.123" cy="14.8" rx="14.8" ry="14.834"/><ellipse transform="rotate(270 243.055 14.8)" cx="243.055" cy="14.8" rx="14.8" ry="14.834"/></g><g class="C"><ellipse cx="197.411" cy="14.8" rx="14.834" ry="14.8"/><ellipse cx="334.344" cy="14.8" rx="14.834" ry="14.8"/></g><ellipse transform="rotate(90 288.7 14.8)" cx="288.699" cy="14.8" rx="14.8" ry="14.834" class="B"/></g><g transform="translate(11.822 18.77)"><ellipse transform="rotate(90 60.479 14.8)" cx="60.479" cy="14.8" rx="14.8" ry="14.834" class="B"/><g class="C"><ellipse transform="rotate(180 14.834 14.8)" cx="14.834" cy="14.8" rx="14.834" ry="14.8"/><ellipse cx="151.767" cy="14.8" rx="14.834" ry="14.8"/></g><g class="B"><ellipse transform="rotate(270 106.123 14.8)" cx="106.123" cy="14.8" rx="14.8" ry="14.834"/><ellipse transform="rotate(90 243.055 14.8)" cx="243.055" cy="14.8" rx="14.8" ry="14.834"/></g><g class="C"><ellipse transform="rotate(180 197.411 14.8)" cx="197.411" cy="14.8" rx="14.834" ry="14.8"/><ellipse cx="334.344" cy="14.8" rx="14.834" ry="14.8"/></g><ellipse transform="rotate(270 288.7 14.8)" cx="288.699" cy="14.8" rx="14.8" ry="14.834" class="B"/></g><g transform="translate(11.822 114.4)"><ellipse transform="rotate(90 60.479 14.8)" cx="60.479" cy="14.8" rx="14.8" ry="14.834" class="B"/><g class="C"><ellipse transform="rotate(180 14.834 14.8)" cx="14.834" cy="14.8" rx="14.834" ry="14.8"/><ellipse cx="151.767" cy="14.8" rx="14.834" ry="14.8"/></g><g class="B"><ellipse transform="rotate(270 106.123 14.8)" cx="106.123" cy="14.8" rx="14.8" ry="14.834"/><ellipse transform="rotate(90 243.055 14.8)" cx="243.055" cy="14.8" rx="14.8" ry="14.834"/></g><g class="C"><ellipse transform="rotate(180 197.411 14.8)" cx="197.411" cy="14.8" rx="14.834" ry="14.8"/><ellipse cx="334.344" cy="14.8" rx="14.834" ry="14.8"/></g><ellipse transform="rotate(270 288.7 14.8)" cx="288.699" cy="14.8" rx="14.8" ry="14.834" class="B"/></g><g transform="translate(11.822 66.585)"><ellipse transform="rotate(270 60.479 14.8)" cx="60.479" cy="14.8" rx="14.8" ry="14.834" class="B"/><g class="C"><ellipse cx="14.834" cy="14.8" rx="14.834" ry="14.8"/><ellipse cx="151.767" cy="14.8" rx="14.834" ry="14.8"/></g><g class="B"><ellipse transform="rotate(90 106.123 14.8)" cx="106.123" cy="14.8" rx="14.8" ry="14.834"/><ellipse transform="rotate(270 243.055 14.8)" cx="243.055" cy="14.8" rx="14.8" ry="14.834"/></g><g class="C"><ellipse cx="197.411" cy="14.8" rx="14.834" ry="14.8"/><ellipse cx="334.344" cy="14.8" rx="14.834" ry="14.8"/></g><ellipse transform="rotate(90 288.7 14.8)" cx="288.699" cy="14.8" rx="14.8" ry="14.834" class="B"/></g></g></g></svg>